# Blender 4.4.3
# www.blender.org
mtllib test_map_colored_1.mtl
o Plane
v -12.341444 -0.456881 11.444428
v 10.339294 -0.456881 11.444428
v -12.341444 -0.456881 -11.236310
v 10.339294 -0.456881 -11.236310
vn -0.0000 1.0000 -0.0000
vt 0.000000 0.000000
vt 1.000000 0.000000
vt 1.000000 1.000000
vt 0.000000 1.000000
s 0
usemtl Material.003
f 1/1/1 2/2/1 4/3/1 3/4/1
o Cube
v 2.161078 -0.414670 1.556945
v 2.161078 3.373009 1.556945
v 2.161078 -0.414670 -2.230734
v 2.729307 3.880826 -2.230734
v 4.320956 -0.414670 1.556945
v 4.320956 3.373009 1.556945
v 4.320956 -0.414670 -2.230734
v 3.752728 3.880826 -2.230734
v 2.161078 5.303256 1.556945
v 2.729307 4.795440 -2.230734
v 3.752728 4.795440 -2.230734
v 4.320956 5.303256 1.556945
vn -0.9951 0.0700 -0.0700
vn -0.0000 -0.0000 -1.0000
vn 0.9951 0.0700 -0.0700
vn -0.0000 -0.0000 1.0000
vn -0.0000 -1.0000 -0.0000
vn -0.9889 -0.0000 -0.1484
vn -0.0000 0.9911 -0.1329
vn 0.9889 -0.0000 -0.1484
vt 0.375000 0.000000
vt 0.625000 0.000000
vt 0.625000 0.250000
vt 0.375000 0.250000
vt 0.625000 0.500000
vt 0.375000 0.500000
vt 0.625000 0.750000
vt 0.375000 0.750000
vt 0.625000 1.000000
vt 0.375000 1.000000
vt 0.125000 0.500000
vt 0.125000 0.750000
vt 0.875000 0.500000
vt 0.875000 0.750000
s 0
usemtl Material.002
f 5/5/2 6/6/2 8/7/2 7/8/2
f 7/8/3 8/7/3 12/9/3 11/10/3
f 11/10/4 12/9/4 10/11/4 9/12/4
f 9/12/5 10/11/5 6/13/5 5/14/5
f 7/15/6 11/10/6 9/12/6 5/16/6
f 8/7/7 6/6/7 13/6/7 14/7/7
f 15/9/8 14/17/8 13/18/8 16/11/8
f 6/13/5 10/11/5 16/11/5 13/13/5
f 12/9/3 8/7/3 14/7/3 15/9/3
f 10/11/9 12/9/9 15/9/9 16/11/9
o Cube.001
v -5.818766 -0.455410 5.206887
v -5.818766 0.386381 5.206887
v -5.818766 -0.455410 4.365096
v -5.818766 0.386381 4.365096
v -4.976974 -0.455410 5.206887
v -4.976974 0.386381 5.206887
v -4.976974 -0.455410 4.365096
v -4.976974 0.386381 4.365096
v -5.818766 1.154115 5.206887
v -5.818766 1.154115 4.365096
v -4.976974 1.154115 4.365096
v -4.976974 1.154115 5.206887
v -5.818766 0.386381 3.193848
v -5.818766 -0.455410 3.193848
v -4.976974 -0.455410 3.193848
v -4.976974 0.386381 3.193848
v -6.100819 -0.562928 2.836645
v -6.100819 -1.404719 2.836645
v -5.259028 -1.404719 2.836645
v -5.259028 -0.562928 2.836645
v -2.812688 0.386381 4.365096
v -2.812688 -0.455410 4.365096
v -2.812688 -0.455410 5.206887
v -2.812688 0.386381 5.206887
vn -1.0000 -0.0000 -0.0000
vn -0.0000 1.0000 -0.0000
vn -0.0000 -0.0000 1.0000
vn -0.0000 -1.0000 -0.0000
vn -0.0000 -0.0000 -1.0000
vn 1.0000 -0.0000 -0.0000
vn -0.0000 0.3522 -0.9359
vn -0.7848 -0.0000 0.6197
vn 0.7848 -0.0000 -0.6197
vn -0.0000 -0.3522 0.9359
vt 0.375000 0.000000
vt 0.625000 0.000000
vt 0.625000 0.250000
vt 0.375000 0.250000
vt 0.625000 0.500000
vt 0.625000 0.750000
vt 0.375000 0.750000
vt 0.625000 1.000000
vt 0.375000 1.000000
vt 0.125000 0.500000
vt 0.375000 0.500000
vt 0.125000 0.750000
vt 0.875000 0.500000
vt 0.875000 0.750000
s 0
usemtl Material.001
f 17/19/10 18/20/10 20/21/10 19/22/10
f 20/21/11 24/23/11 32/23/11 29/21/11
f 22/24/12 21/25/12 39/25/12 40/24/12
f 21/25/12 22/24/12 18/26/12 17/27/12
f 19/28/13 23/29/13 21/25/13 17/30/13
f 18/26/12 22/24/12 28/24/12 25/26/12
f 27/23/11 26/31/11 25/32/11 28/24/11
f 24/23/14 20/21/14 26/21/14 27/23/14
f 22/24/15 24/23/15 27/23/15 28/24/15
f 20/21/10 18/20/10 25/20/10 26/21/10
f 29/21/16 32/23/16 36/23/16 33/21/16
f 19/22/10 20/21/10 29/21/10 30/22/10
f 24/23/15 23/29/15 31/29/15 32/23/15
f 23/29/13 19/28/13 30/28/13 31/29/13
f 34/22/14 33/21/14 36/23/14 35/29/14
f 30/22/17 29/21/17 33/21/17 34/22/17
f 32/23/18 31/29/18 35/29/18 36/23/18
f 31/29/19 30/28/19 34/28/19 35/29/19
f 38/29/15 37/23/15 40/24/15 39/25/15
f 21/25/13 23/29/13 38/29/13 39/25/13
f 24/23/11 22/24/11 40/24/11 37/23/11
f 23/29/14 24/23/14 37/23/14 38/29/14
